<svg width="96" height="64" viewBox="0 0 96 64" fill="none" xmlns="http://www.w3.org/2000/svg">
  <path d="M37 24H59L56 47H40L37 24Z" stroke="#6F7A84" stroke-width="3" stroke-linejoin="round"/>
  <path d="M41 24C41 20.6863 43.6863 18 47 18H49C52.3137 18 55 20.6863 55 24" stroke="#6F7A84" stroke-width="3" stroke-linecap="round"/>
  <path d="M52 30C50.8 28.6667 49.1333 28 47 28C44.8667 28 43.2 28.8 42 30.4C43.2 31.2 44.7 31.8667 46.5 32.4C48.3 32.9333 49.4 33.4667 49.8 34C50.2 34.5333 50.4 35.1333 50.4 35.8C50.4 36.8667 50.0667 37.7333 49.4 38.4C48.7333 39.0667 47.8 39.4 46.6 39.4C44.5333 39.4 42.7333 38.6667 41.2 37.2" stroke="#6F7A84" stroke-width="2.8" stroke-linecap="round" stroke-linejoin="round"/>
</svg>
